<?xml version="1.0" standalone="no"?>
<!DOCTYPE svg PUBLIC "-//W3C//DTD SVG 20010904//EN"
 "http://www.w3.org/TR/2001/REC-SVG-20010904/DTD/svg10.dtd">
<svg version="1.0" xmlns="http://www.w3.org/2000/svg"
 width="260.000000pt" height="260.000000pt" viewBox="0 0 260.000000 260.000000"
 preserveAspectRatio="xMidYMid meet">
<metadata>
Created by potrace 1.14, written by Peter Selinger 2001-2017
</metadata>
<g transform="translate(0.000000,260.000000) scale(0.100000,-0.100000)"
fill="#000000" stroke="none">
<path d="M0 1300 l0 -1300 1300 0 1300 0 0 1300 0 1300 -1300 0 -1300 0 0
-1300z m1192 815 c65 -170 161 -422 213 -560 52 -137 119 -315 150 -395 31
-80 77 -201 103 -270 25 -68 47 -119 49 -113 2 6 -4 71 -13 145 -15 112 -18
241 -21 821 l-4 687 180 0 181 0 0 -1125 0 -1125 -221 2 -222 3 -259 675
c-356 927 -370 964 -381 975 -6 6 -7 3 -4 -10 14 -46 38 -273 47 -440 5 -99
10 -411 10 -692 l0 -513 -185 0 -185 0 0 1118 c0 615 3 1122 7 1126 4 3 103 5
222 4 l215 -3 118 -310z"/>
</g>
</svg>
